<mxfile host="app.diagrams.net" agent="Mozilla/5.0 (Windows NT 10.0; Win64; x64) AppleWebKit/537.36 (KHTML, like Gecko) Chrome/131.0.0.0 Safari/537.36" version="25.0.1">
  <diagram name="第 1 页" id="EKaLVC-L2mDIAMkS5fjt">
    <mxGraphModel dx="1635" dy="428" grid="1" gridSize="10" guides="1" tooltips="1" connect="1" arrows="1" fold="1" page="1" pageScale="1" pageWidth="827" pageHeight="1169" math="0" shadow="0">
      <root>
        <mxCell id="0" />
        <mxCell id="1" parent="0" />
        <mxCell id="RLXdVR2hrbRxnIldnZpx-1" value="會員 (Member)" style="swimlane;fontStyle=1;align=center;verticalAlign=top;childLayout=stackLayout;horizontal=1;startSize=26;horizontalStack=0;resizeParent=1;resizeParentMax=0;resizeLast=0;collapsible=1;marginBottom=0;whiteSpace=wrap;html=1;" vertex="1" parent="1">
          <mxGeometry x="-600" y="200" width="390" height="112" as="geometry">
            <mxRectangle x="-608" y="70" width="160" height="40" as="alternateBounds" />
          </mxGeometry>
        </mxCell>
        <mxCell id="RLXdVR2hrbRxnIldnZpx-4" value="- member_id: int" style="text;strokeColor=none;fillColor=none;align=left;verticalAlign=top;spacingLeft=4;spacingRight=4;overflow=hidden;rotatable=0;points=[[0,0.5],[1,0.5]];portConstraint=eastwest;whiteSpace=wrap;html=1;" vertex="1" parent="RLXdVR2hrbRxnIldnZpx-1">
          <mxGeometry y="26" width="390" height="26" as="geometry" />
        </mxCell>
        <mxCell id="RLXdVR2hrbRxnIldnZpx-6" value="- member_password: string" style="text;strokeColor=none;fillColor=none;align=left;verticalAlign=top;spacingLeft=4;spacingRight=4;overflow=hidden;rotatable=0;points=[[0,0.5],[1,0.5]];portConstraint=eastwest;whiteSpace=wrap;html=1;" vertex="1" parent="RLXdVR2hrbRxnIldnZpx-1">
          <mxGeometry y="52" width="390" height="26" as="geometry" />
        </mxCell>
        <mxCell id="RLXdVR2hrbRxnIldnZpx-10" value="" style="line;strokeWidth=1;fillColor=none;align=left;verticalAlign=middle;spacingTop=-1;spacingLeft=3;spacingRight=3;rotatable=0;labelPosition=right;points=[];portConstraint=eastwest;strokeColor=inherit;" vertex="1" parent="RLXdVR2hrbRxnIldnZpx-1">
          <mxGeometry y="78" width="390" height="8" as="geometry" />
        </mxCell>
        <mxCell id="RLXdVR2hrbRxnIldnZpx-13" value="+ login(member_id: int, password: string): bool" style="text;strokeColor=none;fillColor=none;align=left;verticalAlign=top;spacingLeft=4;spacingRight=4;overflow=hidden;rotatable=0;points=[[0,0.5],[1,0.5]];portConstraint=eastwest;whiteSpace=wrap;html=1;" vertex="1" parent="RLXdVR2hrbRxnIldnZpx-1">
          <mxGeometry y="86" width="390" height="26" as="geometry" />
        </mxCell>
      </root>
    </mxGraphModel>
  </diagram>
</mxfile>
